<svg width="1600" height="900" viewBox="0 0 1600 900" fill="none" xmlns="http://www.w3.org/2000/svg">
  <rect width="1600" height="900" fill="#F2F2F2"/>
  <rect x="86" y="86" width="1428" height="728" rx="24" fill="#F9F9F6" stroke="#EAEAEA" stroke-width="2"/>
  <path d="M1064 146H1414V496H1064V146Z" fill="#1A1A1A" fill-opacity="0.05"/>
  <path d="M1024 106H1454V536H1024V106Z" stroke="#C5A059" stroke-opacity="0.4" stroke-width="2"/>
  <rect x="160" y="184" width="176" height="38" rx="4" fill="#C5A059"/>
  <rect x="160" y="278" width="620" height="24" rx="12" fill="#1A1A1A" fill-opacity="0.16"/>
  <rect x="160" y="326" width="552" height="24" rx="12" fill="#1A1A1A" fill-opacity="0.12"/>
  <rect x="160" y="374" width="472" height="24" rx="12" fill="#1A1A1A" fill-opacity="0.12"/>
  <path d="M1096 554H1414" stroke="#C5A059" stroke-width="3"/>
  <path d="M1096 598H1324" stroke="#1A1A1A" stroke-opacity="0.18" stroke-width="18" stroke-linecap="round"/>
  <path d="M1096 648H1366" stroke="#1A1A1A" stroke-opacity="0.12" stroke-width="18" stroke-linecap="round"/>
  <path d="M1096 698H1272" stroke="#1A1A1A" stroke-opacity="0.12" stroke-width="18" stroke-linecap="round"/>
  <circle cx="924" cy="690" r="82" fill="#C5A059" fill-opacity="0.14"/>
  <path d="M890 692H958" stroke="#C5A059" stroke-width="12" stroke-linecap="round"/>
  <path d="M924 658V726" stroke="#C5A059" stroke-width="12" stroke-linecap="round"/>
</svg>
