<svg width="1600" height="900" viewBox="0 0 1600 900" fill="none" xmlns="http://www.w3.org/2000/svg">
  <rect width="1600" height="900" fill="#F2F2F2"/>
  <rect x="86" y="86" width="1428" height="728" rx="24" fill="#FDFDFD" stroke="#EAEAEA" stroke-width="2"/>
  <rect x="1180" y="120" width="222" height="222" rx="16" fill="#C5A059" fill-opacity="0.12"/>
  <rect x="160" y="172" width="198" height="38" rx="4" fill="#C5A059"/>
  <rect x="160" y="272" width="640" height="24" rx="12" fill="#1A1A1A" fill-opacity="0.16"/>
  <rect x="160" y="320" width="532" height="24" rx="12" fill="#1A1A1A" fill-opacity="0.12"/>
  <rect x="160" y="368" width="488" height="24" rx="12" fill="#1A1A1A" fill-opacity="0.12"/>
  <path d="M986 246C986 193.533 1028.53 151 1081 151H1261C1313.47 151 1356 193.533 1356 246V426H986V246Z" fill="#1A1A1A" fill-opacity="0.05" stroke="#C5A059" stroke-opacity="0.45" stroke-width="2"/>
  <path d="M1040 426V616C1040 663.496 1078.5 702 1126 702H1216C1263.5 702 1302 663.496 1302 616V426" stroke="#1A1A1A" stroke-opacity="0.12" stroke-width="22"/>
  <path d="M1120 246H1222" stroke="#C5A059" stroke-width="16" stroke-linecap="round"/>
  <path d="M1171 194V298" stroke="#C5A059" stroke-width="16" stroke-linecap="round"/>
  <path d="M160 574H648" stroke="#C5A059" stroke-width="3"/>
  <path d="M160 620H720" stroke="#1A1A1A" stroke-opacity="0.16" stroke-width="18" stroke-linecap="round"/>
  <path d="M160 670H598" stroke="#1A1A1A" stroke-opacity="0.12" stroke-width="18" stroke-linecap="round"/>
  <path d="M160 720H520" stroke="#1A1A1A" stroke-opacity="0.12" stroke-width="18" stroke-linecap="round"/>
</svg>
