<svg width="1600" height="900" viewBox="0 0 1600 900" fill="none" xmlns="http://www.w3.org/2000/svg">
  <rect width="1600" height="900" fill="#F2F2F2"/>
  <rect x="86" y="86" width="1428" height="728" rx="24" fill="#F9F9F6" stroke="#EAEAEA" stroke-width="2"/>
  <rect x="160" y="176" width="206" height="38" rx="4" fill="#C5A059"/>
  <rect x="160" y="270" width="648" height="24" rx="12" fill="#1A1A1A" fill-opacity="0.16"/>
  <rect x="160" y="318" width="598" height="24" rx="12" fill="#1A1A1A" fill-opacity="0.12"/>
  <rect x="160" y="366" width="468" height="24" rx="12" fill="#1A1A1A" fill-opacity="0.12"/>
  <path d="M980 194H1402V642H980V194Z" fill="#1A1A1A" fill-opacity="0.05" stroke="#C5A059" stroke-opacity="0.45" stroke-width="2"/>
  <path d="M1030 592L1126 494L1204 552L1354 362" stroke="#C5A059" stroke-width="18" stroke-linecap="round" stroke-linejoin="round"/>
  <circle cx="1030" cy="592" r="18" fill="#C5A059"/>
  <circle cx="1126" cy="494" r="18" fill="#C5A059"/>
  <circle cx="1204" cy="552" r="18" fill="#C5A059"/>
  <circle cx="1354" cy="362" r="18" fill="#C5A059"/>
  <path d="M1028 700H1386" stroke="#1A1A1A" stroke-opacity="0.16" stroke-width="18" stroke-linecap="round"/>
  <path d="M1028 748H1284" stroke="#1A1A1A" stroke-opacity="0.12" stroke-width="18" stroke-linecap="round"/>
  <path d="M160 592H730" stroke="#C5A059" stroke-width="3"/>
  <path d="M160 638H676" stroke="#1A1A1A" stroke-opacity="0.16" stroke-width="18" stroke-linecap="round"/>
  <path d="M160 688H560" stroke="#1A1A1A" stroke-opacity="0.12" stroke-width="18" stroke-linecap="round"/>
  <path d="M160 738H514" stroke="#1A1A1A" stroke-opacity="0.12" stroke-width="18" stroke-linecap="round"/>
</svg>
